REM DIRINDEX 1\2,1\3,1\4,1\5
REM DIRNAME "folder01","folder02","folder03","folder04","folder05"
TITLE ""
FILE "P1Q_t_0070-0079.mp3" MP3
  TRACK 01 AUDIO
    TITLE "3:cjc173_1118"
    INDEX 01 00:00:00
  TRACK 02 AUDIO
    TITLE "0:"
    INDEX 01 00:01:37
  TRACK 03 AUDIO
    TITLE "4:cjc173_1119"
    INDEX 01 00:01:57
  TRACK 04 AUDIO
    TITLE "0:"
    INDEX 01 00:03:34
  TRACK 05 AUDIO
    TITLE "5:cjc173_1120"
    INDEX 01 00:03:54
  TRACK 06 AUDIO
    TITLE "0:"
    INDEX 01 00:08:53
  TRACK 07 AUDIO
    TITLE "3:cjc173_1121"
    INDEX 01 00:09:25
  TRACK 08 AUDIO
    TITLE "0:"
    INDEX 01 00:10:40
  TRACK 09 AUDIO
    TITLE "4:cjc173_1122"
    INDEX 01 00:10:64
  TRACK 10 AUDIO
    TITLE "0:"
    INDEX 01 00:12:68
  TRACK 11 AUDIO
    TITLE "5:cjc173_1123"
    INDEX 01 00:13:13
  TRACK 12 AUDIO
    TITLE "0:"
    INDEX 01 00:17:26
  TRACK 13 AUDIO
    TITLE "3:cjc173_1124"
    INDEX 01 00:17:71
  TRACK 14 AUDIO
    TITLE "0:"
    INDEX 01 00:19:08
  TRACK 15 AUDIO
    TITLE "4:cjc173_1125"
    INDEX 01 00:19:29
  TRACK 16 AUDIO
    TITLE "0:"
    INDEX 01 00:20:62
  TRACK 17 AUDIO
    TITLE "5:cjc173_1126"
    INDEX 01 00:21:07
  TRACK 18 AUDIO
    TITLE "0:"
    INDEX 01 00:24:70
  TRACK 19 AUDIO
    TITLE "3:cjc173_1127"
    INDEX 01 00:25:40
  TRACK 20 AUDIO
    TITLE "0:"
    INDEX 01 00:26:49
  TRACK 21 AUDIO
    TITLE "4:cjc173_1128"
    INDEX 01 00:26:70
  TRACK 22 AUDIO
    TITLE "0:"
    INDEX 01 00:28:13
  TRACK 23 AUDIO
    TITLE "5:cjc173_1129"
    INDEX 01 00:28:32
  TRACK 24 AUDIO
    TITLE "0:"
    INDEX 01 00:34:27
  TRACK 25 AUDIO
    TITLE "3:cjc173_1130"
    INDEX 01 00:34:72
  TRACK 26 AUDIO
    TITLE "0:"
    INDEX 01 00:36:20
  TRACK 27 AUDIO
    TITLE "4:cjc173_1131"
    INDEX 01 00:36:39
  TRACK 28 AUDIO
    TITLE "0:"
    INDEX 01 00:39:63
  TRACK 29 AUDIO
    TITLE "5:cjc173_1132"
    INDEX 01 00:40:10
  TRACK 30 AUDIO
    TITLE "0:"
    INDEX 01 00:45:48
  TRACK 31 AUDIO
    TITLE "3:cjc173_1133"
    INDEX 01 00:46:20
  TRACK 32 AUDIO
    TITLE "0:"
    INDEX 01 00:47:49
  TRACK 33 AUDIO
    TITLE "4:cjc173_1134"
    INDEX 01 00:47:73
  TRACK 34 AUDIO
    TITLE "0:"
    INDEX 01 00:50:10
  TRACK 35 AUDIO
    TITLE "5:cjc173_1135"
    INDEX 01 00:50:30
  TRACK 36 AUDIO
    TITLE "0:"
    INDEX 01 00:56:01
  TRACK 37 AUDIO
    TITLE "3:cjc173_1136"
    INDEX 01 00:56:48
  TRACK 38 AUDIO
    TITLE "0:"
    INDEX 01 00:57:69
  TRACK 39 AUDIO
    TITLE "4:cjc173_1137"
    INDEX 01 00:58:14
  TRACK 40 AUDIO
    TITLE "0:"
    INDEX 01 01:00:38
  TRACK 41 AUDIO
    TITLE "5:cjc173_1138"
    INDEX 01 01:00:65
  TRACK 42 AUDIO
    TITLE "0:"
    INDEX 01 01:05:51
  TRACK 43 AUDIO
    TITLE "3:cjc173_1139"
    INDEX 01 01:06:23
  TRACK 44 AUDIO
    TITLE "0:"
    INDEX 01 01:07:48
  TRACK 45 AUDIO
    TITLE "4:cjc173_1140"
    INDEX 01 01:07:69
  TRACK 46 AUDIO
    TITLE "0:"
    INDEX 01 01:08:69
  TRACK 47 AUDIO
    TITLE "5:cjc173_1141"
    INDEX 01 01:09:13
  TRACK 48 AUDIO
    TITLE "0:"
    INDEX 01 01:13:70
  TRACK 49 AUDIO
    TITLE "3:cjc173_1142"
    INDEX 01 01:14:40
  TRACK 50 AUDIO
    TITLE "0:"
    INDEX 01 01:15:65
  TRACK 51 AUDIO
    TITLE "4:cjc173_1143"
    INDEX 01 01:16:10
  TRACK 52 AUDIO
    TITLE "0:"
    INDEX 01 01:18:06
  TRACK 53 AUDIO
    TITLE "5:cjc173_1144"
    INDEX 01 01:18:26
  TRACK 54 AUDIO
    TITLE "0:"
    INDEX 01 01:24:03
  TRACK 55 AUDIO
    TITLE "3:cjc173_1145"
    INDEX 01 01:24:52
  TRACK 56 AUDIO
    TITLE "0:"
    INDEX 01 01:25:63
  TRACK 57 AUDIO
    TITLE "4:cjc173_1146"
    INDEX 01 01:26:12
  TRACK 58 AUDIO
    TITLE "0:"
    INDEX 01 01:27:35
  TRACK 59 AUDIO
    TITLE "5:cjc173_1147"
    INDEX 01 01:27:54
  TRACK 60 AUDIO
    TITLE "0:"
    INDEX 01 01:32:56
